# xmcd CD database file
#
# Track frame offsets:
#	150
#	10693
#	27541
#	41985
#	58243
#	78778
#	81563
#	101560
#	121221
#	124248
#	138923
#	160588
#	171007
#	174593
#	197740
#	214894
#
# Disc length: 3000 seconds
#
# Revision: 1
# Processed by: cddbd v1.5.2PL0 Copyright (c) Steve Scherf et al.
# Submitted via: CDex 1.51
#
DISCID=db0bb610
DTITLE=DJ Kentaro - Enter
DYEAR=2007
DGENRE=Club
TTITLE0=Enter The Newground
TTITLE1=Keep On - Feat. The Pharcyde
TTITLE2=Free - Feat. MC Spank Roc
TTITLE3=Tasogare Highway High (Bass Wanna Be A Singer)
TTITLE4=Rainyday - Feat. New Flesh
TTITLE5=Uminnaka
TTITLE6=Handmade Gift - Feat. LITTLE TEMPO
TTITLE7=Space Jungle - Feat. MIC SPANK ROCK, RONNIE DARKO, CHRIS ROCKSWELL and ARMANI XXXCHANGE
TTITLE8=Nursery Room
TTITLE9=Harvest Dance - Feat. Hifana
TTITLE10=Trust
TTITLE11=Onehand Blizzard
TTITLE12=Brightin' Star
TTITLE13=Let It Go - Feat. Fat Jon
TTITLE14=Hatsuyume - Feat. Hunger
TTITLE15=Grateful To You
EXTD=YEAR: 2007
EXTT0=
EXTT1=
EXTT2=
EXTT3=
EXTT4=
EXTT5=
EXTT6=
EXTT7=
EXTT8=
EXTT9=
EXTT10=
EXTT11=
EXTT12=
EXTT13=
EXTT14=
EXTT15=
PLAYORDER=
